<mxfile host="Electron" agent="Mozilla/5.0 (Windows NT 10.0; Win64; x64) AppleWebKit/537.36 (KHTML, like Gecko) draw.io/27.0.9 Chrome/134.0.6998.205 Electron/35.4.0 Safari/537.36" version="27.0.9">
  <diagram name="Page-1" id="7TnPF1o5XYoOhg-IGDYB">
    <mxGraphModel dx="2563" dy="2118" grid="1" gridSize="10" guides="1" tooltips="1" connect="1" arrows="1" fold="1" page="1" pageScale="1" pageWidth="850" pageHeight="1100" math="0" shadow="0">
      <root>
        <mxCell id="0" />
        <mxCell id="1" parent="0" />
        <mxCell id="dSe1gFHGp0U9AJxjbd5n-10" style="edgeStyle=orthogonalEdgeStyle;rounded=0;orthogonalLoop=1;jettySize=auto;html=1;exitX=0.75;exitY=0;exitDx=0;exitDy=0;entryX=0;entryY=1;entryDx=0;entryDy=0;curved=1;endArrow=none;startFill=0;" parent="1" source="dSe1gFHGp0U9AJxjbd5n-1" target="dSe1gFHGp0U9AJxjbd5n-8" edge="1">
          <mxGeometry relative="1" as="geometry" />
        </mxCell>
        <mxCell id="dSe1gFHGp0U9AJxjbd5n-11" style="edgeStyle=orthogonalEdgeStyle;rounded=0;orthogonalLoop=1;jettySize=auto;html=1;exitX=0.25;exitY=0;exitDx=0;exitDy=0;entryX=1;entryY=1;entryDx=0;entryDy=0;endArrow=none;startFill=0;curved=1;" parent="1" source="dSe1gFHGp0U9AJxjbd5n-1" target="dSe1gFHGp0U9AJxjbd5n-6" edge="1">
          <mxGeometry relative="1" as="geometry" />
        </mxCell>
        <mxCell id="dSe1gFHGp0U9AJxjbd5n-12" style="edgeStyle=orthogonalEdgeStyle;rounded=0;orthogonalLoop=1;jettySize=auto;html=1;endArrow=none;startFill=0;curved=1;" parent="1" source="dSe1gFHGp0U9AJxjbd5n-1" target="dSe1gFHGp0U9AJxjbd5n-7" edge="1">
          <mxGeometry relative="1" as="geometry" />
        </mxCell>
        <mxCell id="dSe1gFHGp0U9AJxjbd5n-1" value="User" style="rounded=1;whiteSpace=wrap;html=1;" parent="1" vertex="1">
          <mxGeometry x="280" y="60" width="120" height="60" as="geometry" />
        </mxCell>
        <mxCell id="dSe1gFHGp0U9AJxjbd5n-4" style="edgeStyle=orthogonalEdgeStyle;rounded=0;orthogonalLoop=1;jettySize=auto;html=1;entryX=1;entryY=0.5;entryDx=0;entryDy=0;curved=1;dashed=1;dashPattern=8 8;" parent="1" source="dSe1gFHGp0U9AJxjbd5n-2" target="dSe1gFHGp0U9AJxjbd5n-1" edge="1">
          <mxGeometry relative="1" as="geometry" />
        </mxCell>
        <mxCell id="dSe1gFHGp0U9AJxjbd5n-21" style="edgeStyle=orthogonalEdgeStyle;rounded=0;orthogonalLoop=1;jettySize=auto;html=1;entryX=0;entryY=0.5;entryDx=0;entryDy=0;exitX=1;exitY=1;exitDx=0;exitDy=0;endArrow=none;startFill=0;curved=1;exitPerimeter=0;fillColor=#ffcd28;strokeColor=#d79b00;gradientColor=#ffa500;" parent="1" source="dSe1gFHGp0U9AJxjbd5n-2" target="dSe1gFHGp0U9AJxjbd5n-16" edge="1">
          <mxGeometry relative="1" as="geometry">
            <Array as="points">
              <mxPoint x="670" y="260" />
              <mxPoint x="670" y="310" />
            </Array>
          </mxGeometry>
        </mxCell>
        <mxCell id="dSe1gFHGp0U9AJxjbd5n-2" value="Instructor" style="rounded=1;whiteSpace=wrap;html=1;" parent="1" vertex="1">
          <mxGeometry x="560" y="160" width="120" height="60" as="geometry" />
        </mxCell>
        <mxCell id="dSe1gFHGp0U9AJxjbd5n-5" style="edgeStyle=orthogonalEdgeStyle;rounded=0;orthogonalLoop=1;jettySize=auto;html=1;entryX=0;entryY=0.5;entryDx=0;entryDy=0;curved=1;endArrow=classic;startFill=0;dashed=1;dashPattern=8 8;endFill=1;" parent="1" source="dSe1gFHGp0U9AJxjbd5n-3" target="dSe1gFHGp0U9AJxjbd5n-1" edge="1">
          <mxGeometry relative="1" as="geometry" />
        </mxCell>
        <mxCell id="dSe1gFHGp0U9AJxjbd5n-50" value="Many" style="edgeStyle=orthogonalEdgeStyle;rounded=0;orthogonalLoop=1;jettySize=auto;html=1;entryX=0;entryY=0.5;entryDx=0;entryDy=0;endArrow=none;startFill=0;curved=1;" parent="1" source="dSe1gFHGp0U9AJxjbd5n-3" target="dSe1gFHGp0U9AJxjbd5n-49" edge="1">
          <mxGeometry relative="1" as="geometry" />
        </mxCell>
        <mxCell id="dSe1gFHGp0U9AJxjbd5n-72" value="Many" style="edgeStyle=orthogonalEdgeStyle;rounded=0;orthogonalLoop=1;jettySize=auto;html=1;entryX=0.5;entryY=0;entryDx=0;entryDy=0;endArrow=none;startFill=0;fillColor=#f8cecc;strokeColor=#b85450;" parent="1" source="dSe1gFHGp0U9AJxjbd5n-3" target="dSe1gFHGp0U9AJxjbd5n-73" edge="1">
          <mxGeometry relative="1" as="geometry">
            <mxPoint x="320" y="410" as="targetPoint" />
          </mxGeometry>
        </mxCell>
        <mxCell id="dSe1gFHGp0U9AJxjbd5n-3" value="Student" style="rounded=1;whiteSpace=wrap;html=1;" parent="1" vertex="1">
          <mxGeometry x="30" y="160" width="120" height="60" as="geometry" />
        </mxCell>
        <mxCell id="dSe1gFHGp0U9AJxjbd5n-6" value="UserName" style="ellipse;whiteSpace=wrap;html=1;" parent="1" vertex="1">
          <mxGeometry x="250" y="-60" width="60" height="50" as="geometry" />
        </mxCell>
        <mxCell id="dSe1gFHGp0U9AJxjbd5n-7" value="Email" style="ellipse;whiteSpace=wrap;html=1;" parent="1" vertex="1">
          <mxGeometry x="320" y="-80" width="60" height="50" as="geometry" />
        </mxCell>
        <mxCell id="dSe1gFHGp0U9AJxjbd5n-8" value="Role" style="ellipse;whiteSpace=wrap;html=1;" parent="1" vertex="1">
          <mxGeometry x="400" y="-60" width="60" height="50" as="geometry" />
        </mxCell>
        <mxCell id="dSe1gFHGp0U9AJxjbd5n-13" value="Course" style="rounded=1;whiteSpace=wrap;html=1;" parent="1" vertex="1">
          <mxGeometry x="380" y="750" width="120" height="60" as="geometry" />
        </mxCell>
        <mxCell id="dSe1gFHGp0U9AJxjbd5n-14" value="Exam" style="rounded=1;whiteSpace=wrap;html=1;" parent="1" vertex="1">
          <mxGeometry x="870" y="360" width="120" height="60" as="geometry" />
        </mxCell>
        <mxCell id="dSe1gFHGp0U9AJxjbd5n-17" style="edgeStyle=orthogonalEdgeStyle;rounded=0;orthogonalLoop=1;jettySize=auto;html=1;entryX=0.02;entryY=0.877;entryDx=0;entryDy=0;endArrow=none;startFill=0;curved=1;entryPerimeter=0;" parent="1" source="dSe1gFHGp0U9AJxjbd5n-15" target="dSe1gFHGp0U9AJxjbd5n-2" edge="1">
          <mxGeometry relative="1" as="geometry">
            <Array as="points">
              <mxPoint x="540" y="315" />
              <mxPoint x="540" y="253" />
            </Array>
          </mxGeometry>
        </mxCell>
        <mxCell id="dSe1gFHGp0U9AJxjbd5n-18" style="edgeStyle=orthogonalEdgeStyle;rounded=0;orthogonalLoop=1;jettySize=auto;html=1;exitX=0.5;exitY=1;exitDx=0;exitDy=0;entryX=0.5;entryY=0;entryDx=0;entryDy=0;curved=1;endArrow=none;startFill=0;" parent="1" source="dSe1gFHGp0U9AJxjbd5n-15" target="dSe1gFHGp0U9AJxjbd5n-13" edge="1">
          <mxGeometry relative="1" as="geometry" />
        </mxCell>
        <mxCell id="dSe1gFHGp0U9AJxjbd5n-15" value="Learn" style="rhombus;whiteSpace=wrap;html=1;" parent="1" vertex="1">
          <mxGeometry x="790" y="790" width="50" height="50" as="geometry" />
        </mxCell>
        <mxCell id="dSe1gFHGp0U9AJxjbd5n-22" value="Many" style="edgeStyle=orthogonalEdgeStyle;rounded=0;orthogonalLoop=1;jettySize=auto;html=1;curved=1;endArrow=none;startFill=0;fillColor=#ffcd28;strokeColor=#d79b00;gradientColor=#ffa500;" parent="1" source="dSe1gFHGp0U9AJxjbd5n-16" target="dSe1gFHGp0U9AJxjbd5n-14" edge="1">
          <mxGeometry relative="1" as="geometry" />
        </mxCell>
        <mxCell id="dSe1gFHGp0U9AJxjbd5n-16" value="Make" style="rhombus;whiteSpace=wrap;html=1;" parent="1" vertex="1">
          <mxGeometry x="720" y="290" width="50" height="40" as="geometry" />
        </mxCell>
        <mxCell id="dSe1gFHGp0U9AJxjbd5n-24" value="Title" style="ellipse;whiteSpace=wrap;html=1;" parent="1" vertex="1">
          <mxGeometry x="870" y="260" width="70" height="40" as="geometry" />
        </mxCell>
        <mxCell id="dSe1gFHGp0U9AJxjbd5n-25" value="AvailableFrom" style="ellipse;whiteSpace=wrap;html=1;" parent="1" vertex="1">
          <mxGeometry x="1040" y="320" width="90" height="40" as="geometry" />
        </mxCell>
        <mxCell id="dSe1gFHGp0U9AJxjbd5n-30" style="edgeStyle=orthogonalEdgeStyle;rounded=0;orthogonalLoop=1;jettySize=auto;html=1;entryX=0.5;entryY=0;entryDx=0;entryDy=0;curved=1;endArrow=none;startFill=0;" parent="1" source="dSe1gFHGp0U9AJxjbd5n-26" target="dSe1gFHGp0U9AJxjbd5n-14" edge="1">
          <mxGeometry relative="1" as="geometry" />
        </mxCell>
        <mxCell id="dSe1gFHGp0U9AJxjbd5n-26" value="Description" style="ellipse;whiteSpace=wrap;html=1;" parent="1" vertex="1">
          <mxGeometry x="940" y="260" width="70" height="40" as="geometry" />
        </mxCell>
        <mxCell id="dSe1gFHGp0U9AJxjbd5n-35" style="edgeStyle=orthogonalEdgeStyle;rounded=0;orthogonalLoop=1;jettySize=auto;html=1;entryX=0;entryY=1;entryDx=0;entryDy=0;endArrow=none;startFill=0;curved=1;" parent="1" source="dSe1gFHGp0U9AJxjbd5n-27" target="dSe1gFHGp0U9AJxjbd5n-33" edge="1">
          <mxGeometry relative="1" as="geometry" />
        </mxCell>
        <mxCell id="dSe1gFHGp0U9AJxjbd5n-27" value="Type" style="ellipse;whiteSpace=wrap;html=1;" parent="1" vertex="1">
          <mxGeometry x="1020" y="280" width="70" height="40" as="geometry" />
        </mxCell>
        <mxCell id="dSe1gFHGp0U9AJxjbd5n-29" style="edgeStyle=orthogonalEdgeStyle;rounded=0;orthogonalLoop=1;jettySize=auto;html=1;entryX=0.131;entryY=0.067;entryDx=0;entryDy=0;entryPerimeter=0;endArrow=none;startFill=0;curved=1;" parent="1" source="dSe1gFHGp0U9AJxjbd5n-24" target="dSe1gFHGp0U9AJxjbd5n-14" edge="1">
          <mxGeometry relative="1" as="geometry" />
        </mxCell>
        <mxCell id="dSe1gFHGp0U9AJxjbd5n-31" style="edgeStyle=orthogonalEdgeStyle;rounded=0;orthogonalLoop=1;jettySize=auto;html=1;entryX=0.675;entryY=0.067;entryDx=0;entryDy=0;entryPerimeter=0;curved=1;endArrow=none;startFill=0;" parent="1" source="dSe1gFHGp0U9AJxjbd5n-27" target="dSe1gFHGp0U9AJxjbd5n-14" edge="1">
          <mxGeometry relative="1" as="geometry" />
        </mxCell>
        <mxCell id="dSe1gFHGp0U9AJxjbd5n-32" style="edgeStyle=orthogonalEdgeStyle;rounded=0;orthogonalLoop=1;jettySize=auto;html=1;entryX=0.886;entryY=0.022;entryDx=0;entryDy=0;entryPerimeter=0;curved=1;endArrow=none;startFill=0;" parent="1" source="dSe1gFHGp0U9AJxjbd5n-25" target="dSe1gFHGp0U9AJxjbd5n-14" edge="1">
          <mxGeometry relative="1" as="geometry" />
        </mxCell>
        <mxCell id="dSe1gFHGp0U9AJxjbd5n-33" value="Quiz" style="ellipse;whiteSpace=wrap;html=1;" parent="1" vertex="1">
          <mxGeometry x="1045" y="220" width="45" height="30" as="geometry" />
        </mxCell>
        <mxCell id="dSe1gFHGp0U9AJxjbd5n-34" value="Final" style="ellipse;whiteSpace=wrap;html=1;" parent="1" vertex="1">
          <mxGeometry x="1100" y="250" width="50" height="30" as="geometry" />
        </mxCell>
        <mxCell id="dSe1gFHGp0U9AJxjbd5n-38" style="edgeStyle=orthogonalEdgeStyle;rounded=0;orthogonalLoop=1;jettySize=auto;html=1;entryX=0.681;entryY=0.117;entryDx=0;entryDy=0;entryPerimeter=0;endArrow=none;startFill=0;curved=1;" parent="1" source="dSe1gFHGp0U9AJxjbd5n-34" target="dSe1gFHGp0U9AJxjbd5n-27" edge="1">
          <mxGeometry relative="1" as="geometry" />
        </mxCell>
        <mxCell id="dSe1gFHGp0U9AJxjbd5n-39" value="AvailableTo" style="ellipse;whiteSpace=wrap;html=1;" parent="1" vertex="1">
          <mxGeometry x="1080" y="360" width="90" height="40" as="geometry" />
        </mxCell>
        <mxCell id="dSe1gFHGp0U9AJxjbd5n-40" style="edgeStyle=orthogonalEdgeStyle;rounded=0;orthogonalLoop=1;jettySize=auto;html=1;entryX=0.997;entryY=0.356;entryDx=0;entryDy=0;entryPerimeter=0;endArrow=none;startFill=0;curved=1;" parent="1" source="dSe1gFHGp0U9AJxjbd5n-39" target="dSe1gFHGp0U9AJxjbd5n-14" edge="1">
          <mxGeometry relative="1" as="geometry" />
        </mxCell>
        <mxCell id="dSe1gFHGp0U9AJxjbd5n-43" style="edgeStyle=orthogonalEdgeStyle;rounded=0;orthogonalLoop=1;jettySize=auto;html=1;entryX=1;entryY=0.25;entryDx=0;entryDy=0;curved=1;endArrow=none;startFill=0;" parent="1" source="dSe1gFHGp0U9AJxjbd5n-41" target="dSe1gFHGp0U9AJxjbd5n-14" edge="1">
          <mxGeometry relative="1" as="geometry" />
        </mxCell>
        <mxCell id="dSe1gFHGp0U9AJxjbd5n-41" value="DurationInMinutes" style="ellipse;whiteSpace=wrap;html=1;" parent="1" vertex="1">
          <mxGeometry x="1100" y="400" width="110" height="40" as="geometry" />
        </mxCell>
        <mxCell id="dSe1gFHGp0U9AJxjbd5n-45" style="edgeStyle=orthogonalEdgeStyle;rounded=0;orthogonalLoop=1;jettySize=auto;html=1;entryX=1;entryY=0.5;entryDx=0;entryDy=0;curved=1;endArrow=none;startFill=0;" parent="1" source="dSe1gFHGp0U9AJxjbd5n-44" target="dSe1gFHGp0U9AJxjbd5n-14" edge="1">
          <mxGeometry relative="1" as="geometry" />
        </mxCell>
        <mxCell id="dSe1gFHGp0U9AJxjbd5n-44" value="IsAutoGenerated" style="ellipse;whiteSpace=wrap;html=1;" parent="1" vertex="1">
          <mxGeometry x="1100" y="440" width="110" height="40" as="geometry" />
        </mxCell>
        <mxCell id="dSe1gFHGp0U9AJxjbd5n-47" style="edgeStyle=orthogonalEdgeStyle;rounded=0;orthogonalLoop=1;jettySize=auto;html=1;endArrow=none;startFill=0;" parent="1" source="dSe1gFHGp0U9AJxjbd5n-46" target="dSe1gFHGp0U9AJxjbd5n-13" edge="1">
          <mxGeometry relative="1" as="geometry" />
        </mxCell>
        <mxCell id="dSe1gFHGp0U9AJxjbd5n-48" value="Many" style="edgeStyle=orthogonalEdgeStyle;rounded=0;orthogonalLoop=1;jettySize=auto;html=1;endArrow=none;startFill=0;" parent="1" source="dSe1gFHGp0U9AJxjbd5n-46" target="dSe1gFHGp0U9AJxjbd5n-14" edge="1">
          <mxGeometry relative="1" as="geometry" />
        </mxCell>
        <mxCell id="dSe1gFHGp0U9AJxjbd5n-46" value="Has" style="rhombus;whiteSpace=wrap;html=1;" parent="1" vertex="1">
          <mxGeometry x="660" y="360" width="60" height="60" as="geometry" />
        </mxCell>
        <mxCell id="dSe1gFHGp0U9AJxjbd5n-51" value="Many" style="edgeStyle=orthogonalEdgeStyle;rounded=0;orthogonalLoop=1;jettySize=auto;html=1;entryX=0;entryY=0.5;entryDx=0;entryDy=0;endArrow=none;startFill=0;curved=1;" parent="1" source="dSe1gFHGp0U9AJxjbd5n-49" target="dSe1gFHGp0U9AJxjbd5n-13" edge="1">
          <mxGeometry relative="1" as="geometry" />
        </mxCell>
        <mxCell id="dSe1gFHGp0U9AJxjbd5n-49" value="Enroll" style="rhombus;whiteSpace=wrap;html=1;" parent="1" vertex="1">
          <mxGeometry x="-130" y="650" width="50" height="50" as="geometry" />
        </mxCell>
        <mxCell id="dSe1gFHGp0U9AJxjbd5n-56" style="edgeStyle=orthogonalEdgeStyle;rounded=0;orthogonalLoop=1;jettySize=auto;html=1;entryX=0.5;entryY=0;entryDx=0;entryDy=0;endArrow=none;startFill=0;curved=1;" parent="1" source="dSe1gFHGp0U9AJxjbd5n-54" target="dSe1gFHGp0U9AJxjbd5n-49" edge="1">
          <mxGeometry relative="1" as="geometry" />
        </mxCell>
        <mxCell id="dSe1gFHGp0U9AJxjbd5n-54" value="EnrollmentDate" style="ellipse;whiteSpace=wrap;html=1;" parent="1" vertex="1">
          <mxGeometry x="-270" y="630" width="100" height="50" as="geometry" />
        </mxCell>
        <mxCell id="dSe1gFHGp0U9AJxjbd5n-64" style="edgeStyle=orthogonalEdgeStyle;rounded=0;orthogonalLoop=1;jettySize=auto;html=1;entryX=0;entryY=0;entryDx=0;entryDy=0;curved=1;endArrow=none;startFill=0;" parent="1" source="dSe1gFHGp0U9AJxjbd5n-60" target="dSe1gFHGp0U9AJxjbd5n-13" edge="1">
          <mxGeometry relative="1" as="geometry">
            <Array as="points">
              <mxPoint x="290" y="710" />
              <mxPoint x="400" y="710" />
              <mxPoint x="400" y="720" />
              <mxPoint x="380" y="720" />
            </Array>
          </mxGeometry>
        </mxCell>
        <mxCell id="dSe1gFHGp0U9AJxjbd5n-60" value="Name" style="ellipse;whiteSpace=wrap;html=1;" parent="1" vertex="1">
          <mxGeometry x="310" y="720" width="60" height="40" as="geometry" />
        </mxCell>
        <mxCell id="dSe1gFHGp0U9AJxjbd5n-63" style="edgeStyle=orthogonalEdgeStyle;rounded=0;orthogonalLoop=1;jettySize=auto;html=1;entryX=0.25;entryY=0;entryDx=0;entryDy=0;curved=1;endArrow=none;startFill=0;" parent="1" source="dSe1gFHGp0U9AJxjbd5n-61" target="dSe1gFHGp0U9AJxjbd5n-13" edge="1">
          <mxGeometry relative="1" as="geometry" />
        </mxCell>
        <mxCell id="dSe1gFHGp0U9AJxjbd5n-61" value="Desciption" style="ellipse;whiteSpace=wrap;html=1;" parent="1" vertex="1">
          <mxGeometry x="310" y="680" width="60" height="30" as="geometry" />
        </mxCell>
        <mxCell id="dSe1gFHGp0U9AJxjbd5n-78" value="Many" style="edgeStyle=orthogonalEdgeStyle;rounded=0;orthogonalLoop=1;jettySize=auto;html=1;entryX=0;entryY=0;entryDx=0;entryDy=0;fillColor=#f8cecc;strokeColor=#b85450;" parent="1" source="dSe1gFHGp0U9AJxjbd5n-73" target="dSe1gFHGp0U9AJxjbd5n-14" edge="1">
          <mxGeometry relative="1" as="geometry" />
        </mxCell>
        <mxCell id="dSe1gFHGp0U9AJxjbd5n-73" value="Assign" style="rhombus;whiteSpace=wrap;html=1;" parent="1" vertex="1">
          <mxGeometry x="340" y="340" width="60" height="60" as="geometry" />
        </mxCell>
        <mxCell id="dSe1gFHGp0U9AJxjbd5n-80" value="Many" style="edgeStyle=orthogonalEdgeStyle;rounded=0;orthogonalLoop=1;jettySize=auto;html=1;entryX=0.847;entryY=0.985;entryDx=0;entryDy=0;endArrow=none;startFill=0;fillColor=#ffcd28;gradientColor=#ffa500;strokeColor=#d79b00;entryPerimeter=0;" parent="1" source="dSe1gFHGp0U9AJxjbd5n-79" target="dSe1gFHGp0U9AJxjbd5n-3" edge="1">
          <mxGeometry relative="1" as="geometry">
            <Array as="points">
              <mxPoint x="440" y="219" />
            </Array>
          </mxGeometry>
        </mxCell>
        <mxCell id="dSe1gFHGp0U9AJxjbd5n-81" value="Many" style="edgeStyle=orthogonalEdgeStyle;rounded=0;orthogonalLoop=1;jettySize=auto;html=1;entryX=0.25;entryY=1;entryDx=0;entryDy=0;fillColor=#ffcd28;gradientColor=#ffa500;strokeColor=#d79b00;" parent="1" source="dSe1gFHGp0U9AJxjbd5n-79" target="dSe1gFHGp0U9AJxjbd5n-14" edge="1">
          <mxGeometry relative="1" as="geometry">
            <Array as="points">
              <mxPoint x="510" y="265" />
              <mxPoint x="510" y="520" />
              <mxPoint x="900" y="520" />
            </Array>
          </mxGeometry>
        </mxCell>
        <mxCell id="dSe1gFHGp0U9AJxjbd5n-79" value="Attempt" style="rhombus;whiteSpace=wrap;html=1;" parent="1" vertex="1">
          <mxGeometry x="410" y="235" width="60" height="60" as="geometry" />
        </mxCell>
        <mxCell id="dSe1gFHGp0U9AJxjbd5n-83" value="Many" style="edgeStyle=orthogonalEdgeStyle;rounded=0;orthogonalLoop=1;jettySize=auto;html=1;entryX=0.75;entryY=1;entryDx=0;entryDy=0;endArrow=none;startFill=0;curved=1;" parent="1" source="dSe1gFHGp0U9AJxjbd5n-82" target="dSe1gFHGp0U9AJxjbd5n-14" edge="1">
          <mxGeometry relative="1" as="geometry" />
        </mxCell>
        <mxCell id="dSe1gFHGp0U9AJxjbd5n-82" value="Has" style="rhombus;whiteSpace=wrap;html=1;" parent="1" vertex="1">
          <mxGeometry x="980" y="540" width="55" height="50" as="geometry" />
        </mxCell>
        <mxCell id="dSe1gFHGp0U9AJxjbd5n-85" value="Many" style="edgeStyle=orthogonalEdgeStyle;rounded=0;orthogonalLoop=1;jettySize=auto;html=1;endArrow=none;startFill=0;curved=1;" parent="1" source="dSe1gFHGp0U9AJxjbd5n-84" target="dSe1gFHGp0U9AJxjbd5n-82" edge="1">
          <mxGeometry relative="1" as="geometry" />
        </mxCell>
        <mxCell id="dSe1gFHGp0U9AJxjbd5n-84" value="Question" style="rounded=1;whiteSpace=wrap;html=1;" parent="1" vertex="1">
          <mxGeometry x="1020" y="650" width="120" height="60" as="geometry" />
        </mxCell>
        <mxCell id="dSe1gFHGp0U9AJxjbd5n-89" value="" style="edgeStyle=orthogonalEdgeStyle;rounded=0;orthogonalLoop=1;jettySize=auto;html=1;curved=1;endArrow=none;startFill=0;" parent="1" source="dSe1gFHGp0U9AJxjbd5n-86" target="dSe1gFHGp0U9AJxjbd5n-84" edge="1">
          <mxGeometry relative="1" as="geometry" />
        </mxCell>
        <mxCell id="dSe1gFHGp0U9AJxjbd5n-86" value="Has" style="rhombus;whiteSpace=wrap;html=1;" parent="1" vertex="1">
          <mxGeometry x="1100" y="790" width="55" height="50" as="geometry" />
        </mxCell>
        <mxCell id="dSe1gFHGp0U9AJxjbd5n-88" value="Many" style="edgeStyle=orthogonalEdgeStyle;rounded=0;orthogonalLoop=1;jettySize=auto;html=1;entryX=0.5;entryY=1;entryDx=0;entryDy=0;endArrow=none;startFill=0;curved=1;" parent="1" source="dSe1gFHGp0U9AJxjbd5n-87" target="dSe1gFHGp0U9AJxjbd5n-86" edge="1">
          <mxGeometry relative="1" as="geometry" />
        </mxCell>
        <mxCell id="dSe1gFHGp0U9AJxjbd5n-87" value="Choice" style="rounded=1;whiteSpace=wrap;html=1;" parent="1" vertex="1">
          <mxGeometry x="1080" y="900" width="120" height="60" as="geometry" />
        </mxCell>
        <mxCell id="7z9BS-pfr_Vv9ov9BCK4-2" value="Ansewer" style="edgeStyle=orthogonalEdgeStyle;rounded=0;orthogonalLoop=1;jettySize=auto;html=1;entryX=0.403;entryY=1;entryDx=0;entryDy=0;entryPerimeter=0;" edge="1" parent="1" source="7z9BS-pfr_Vv9ov9BCK4-1" target="dSe1gFHGp0U9AJxjbd5n-3">
          <mxGeometry relative="1" as="geometry" />
        </mxCell>
        <mxCell id="7z9BS-pfr_Vv9ov9BCK4-3" value="Many" style="edgeStyle=orthogonalEdgeStyle;rounded=0;orthogonalLoop=1;jettySize=auto;html=1;entryX=0;entryY=0.5;entryDx=0;entryDy=0;" edge="1" parent="1" source="7z9BS-pfr_Vv9ov9BCK4-1" target="dSe1gFHGp0U9AJxjbd5n-84">
          <mxGeometry relative="1" as="geometry">
            <Array as="points">
              <mxPoint x="890" y="930" />
              <mxPoint x="890" y="680" />
            </Array>
          </mxGeometry>
        </mxCell>
        <mxCell id="7z9BS-pfr_Vv9ov9BCK4-10" value="One" style="edgeStyle=orthogonalEdgeStyle;rounded=0;orthogonalLoop=1;jettySize=auto;html=1;entryX=0;entryY=0.5;entryDx=0;entryDy=0;" edge="1" parent="1" source="7z9BS-pfr_Vv9ov9BCK4-1" target="dSe1gFHGp0U9AJxjbd5n-87">
          <mxGeometry relative="1" as="geometry">
            <Array as="points">
              <mxPoint x="370" y="990" />
              <mxPoint x="740" y="990" />
              <mxPoint x="740" y="1060" />
              <mxPoint x="1080" y="1060" />
            </Array>
          </mxGeometry>
        </mxCell>
        <mxCell id="7z9BS-pfr_Vv9ov9BCK4-1" value="Answer" style="rhombus;whiteSpace=wrap;html=1;" vertex="1" parent="1">
          <mxGeometry x="340" y="900" width="60" height="60" as="geometry" />
        </mxCell>
        <mxCell id="7z9BS-pfr_Vv9ov9BCK4-8" style="edgeStyle=orthogonalEdgeStyle;rounded=0;orthogonalLoop=1;jettySize=auto;html=1;entryX=0.5;entryY=1;entryDx=0;entryDy=0;curved=1;endArrow=none;startFill=0;" edge="1" parent="1" source="7z9BS-pfr_Vv9ov9BCK4-6" target="dSe1gFHGp0U9AJxjbd5n-87">
          <mxGeometry relative="1" as="geometry" />
        </mxCell>
        <mxCell id="7z9BS-pfr_Vv9ov9BCK4-6" value="text" style="ellipse;whiteSpace=wrap;html=1;" vertex="1" parent="1">
          <mxGeometry x="1150" y="1010" width="90" height="60" as="geometry" />
        </mxCell>
        <mxCell id="7z9BS-pfr_Vv9ov9BCK4-9" style="edgeStyle=orthogonalEdgeStyle;rounded=0;orthogonalLoop=1;jettySize=auto;html=1;entryX=1;entryY=0.75;entryDx=0;entryDy=0;" edge="1" parent="1" source="7z9BS-pfr_Vv9ov9BCK4-7" target="dSe1gFHGp0U9AJxjbd5n-87">
          <mxGeometry relative="1" as="geometry" />
        </mxCell>
        <mxCell id="7z9BS-pfr_Vv9ov9BCK4-7" value="text" style="ellipse;whiteSpace=wrap;html=1;" vertex="1" parent="1">
          <mxGeometry x="1260" y="980" width="90" height="60" as="geometry" />
        </mxCell>
        <mxCell id="7z9BS-pfr_Vv9ov9BCK4-12" style="edgeStyle=orthogonalEdgeStyle;rounded=0;orthogonalLoop=1;jettySize=auto;html=1;entryX=0.75;entryY=0;entryDx=0;entryDy=0;curved=1;endArrow=none;startFill=0;" edge="1" parent="1" source="7z9BS-pfr_Vv9ov9BCK4-11" target="dSe1gFHGp0U9AJxjbd5n-84">
          <mxGeometry relative="1" as="geometry" />
        </mxCell>
        <mxCell id="7z9BS-pfr_Vv9ov9BCK4-11" value="Text" style="ellipse;whiteSpace=wrap;html=1;" vertex="1" parent="1">
          <mxGeometry x="1120" y="580" width="70" height="40" as="geometry" />
        </mxCell>
        <mxCell id="7z9BS-pfr_Vv9ov9BCK4-13" style="edgeStyle=orthogonalEdgeStyle;rounded=0;orthogonalLoop=1;jettySize=auto;html=1;exitX=0.5;exitY=0;exitDx=0;exitDy=0;entryX=0.417;entryY=0.167;entryDx=0;entryDy=0;entryPerimeter=0;" edge="1" parent="1" source="dSe1gFHGp0U9AJxjbd5n-1" target="dSe1gFHGp0U9AJxjbd5n-1">
          <mxGeometry relative="1" as="geometry" />
        </mxCell>
      </root>
    </mxGraphModel>
  </diagram>
</mxfile>
